<svg xmlns="http://www.w3.org/2000/svg" version="1.1" xmlns:xlink="http://www.w3.org/1999/xlink" xmlns:svgjs="http://svgjs.dev/svgjs" width="1000" height="305" viewBox="0 0 1000 305"><g transform="matrix(1,0,0,1,-0.6060606060606233,0.028541086186550046)"><svg viewBox="0 0 396 121" data-background-color="#ffffff" preserveAspectRatio="xMidYMid meet" height="305" width="1000" xmlns="http://www.w3.org/2000/svg" xmlns:xlink="http://www.w3.org/1999/xlink"><g id="tight-bounds" transform="matrix(1,0,0,1,0.2400000000000091,-0.011322857142857856)"><svg viewBox="0 0 395.52 121.02264571428572" height="121.02264571428572" width="395.52"><g><svg viewBox="0 0 395.52 121.02264571428572" height="121.02264571428572" width="395.52"><g><svg viewBox="0 0 395.52 121.02264571428572" height="121.02264571428572" width="395.52"><g><svg viewBox="0 0 395.52 121.02264571428572" height="121.02264571428572" width="395.52"><g><svg viewBox="0 0 395.52 121.02264571428572" height="121.02264571428572" width="395.52"><rect width="395.52" height="121.02264571428572" x="0" y="0" opacity="1" fill="#ff908b" data-fill-palette-color="tertiary"></rect><g transform="matrix(1,0,0,1,23.607599999999998,23.607599999999998)"><svg width="348.3048" viewBox="2.85 -35.1 167.99 35.6" height="73.80744571428572" data-palette-color="#ffffff"><path d="M23.7-14.25L17.95-14.25 17.95-17.7 27.5-17.7 27.5-0.7Q21.2 0.5 16.25 0.5L16.25 0.5Q8.7 0.5 5.78-3.85 2.85-8.2 2.85-17.28 2.85-26.35 5.78-30.73 8.7-35.1 16.15-35.1L16.15-35.1Q20.8-35.1 25.8-34.1L25.8-34.1 27.5-33.8 27.35-30.6Q21.15-31.65 16.6-31.65L16.6-31.65Q10.85-31.65 8.85-28.33 6.85-25 6.85-17.28 6.85-9.55 8.85-6.23 10.85-2.9 16.55-2.9L16.55-2.9Q20.05-2.9 23.7-3.6L23.7-3.6 23.7-14.25ZM54.1-3.45L54.1 0 35.05 0 35.05-34.6 38.9-34.6 38.9-3.45 54.1-3.45ZM59.75 0L55.95 0 65.45-34.6 73.84-34.6 83.34 0 79.55 0 77.05-8.9 62.25-8.9 59.75 0ZM70.95-31.3L68.34-31.3 63.1-12.35 76.2-12.35 70.95-31.3ZM92.64 0L88.79 0 88.79-34.6 95.99-34.6 109.24-3.4 110.29-3.4 110.29-34.6 114.09-34.6 114.09 0 107.04 0 93.59-31.2 92.64-31.2 92.64 0ZM143.34-3.85L143.49-0.55Q138.34 0.5 134.24 0.5 130.14 0.5 127.62-0.63 125.09-1.75 123.72-4.13 122.34-6.5 121.81-9.58 121.29-12.65 121.29-17.25 121.29-21.85 121.81-24.98 122.34-28.1 123.72-30.5 125.09-32.9 127.59-34 130.09-35.1 134.09-35.1 138.09-35.1 143.49-34L143.49-34 143.34-30.75Q138.29-31.65 134.34-31.65L134.34-31.65Q128.84-31.65 127.06-28.38 125.29-25.1 125.29-17.2L125.29-17.2Q125.29-13.25 125.62-10.85 125.94-8.45 126.89-6.53 127.84-4.6 129.66-3.78 131.49-2.95 135.02-2.95 138.54-2.95 143.34-3.85L143.34-3.85ZM170.84 0L149.79 0 149.79-34.6 170.84-34.6 170.84-31.2 153.64-31.2 153.64-19.25 167.84-19.25 167.84-15.9 153.64-15.9 153.64-3.4 170.84-3.4 170.84 0Z" opacity="1" transform="matrix(1,0,0,1,0,0)" fill="#ffffff" class="undefined-text-0" data-fill-palette-color="quaternary" id="text-0"></path></svg></g></svg></g></svg></g></svg></g><g></g></svg></g><defs></defs></svg><rect width="395.52" height="121.02264571428572" fill="none" stroke="none" visibility="hidden"></rect></g></svg></g></svg>